<svg width="24" height="24" viewBox="0 0 24 24" fill="none" xmlns="http://www.w3.org/2000/svg">
<path d="M16.5 20.9992C9.05625 20.9992 3 14.9429 3 7.49915C3.00281 6.22233 3.46919 4.98998 4.31243 4.03121C5.15566 3.07244 6.31837 2.4525 7.58437 2.28665C7.90711 2.25087 8.23284 2.31882 8.51435 2.48064C8.79586 2.64247 9.01851 2.88976 9.15 3.18665L11.0344 7.58353C11.1321 7.81175 11.1713 8.06078 11.1484 8.308C11.1255 8.55521 11.0412 8.79279 10.9031 8.99915L9.34687 11.3804C10.0516 12.8106 11.2127 13.9651 12.6469 14.6617L15 13.096C15.2061 12.9571 15.4443 12.8729 15.692 12.8516C15.9397 12.8303 16.1888 12.8725 16.4156 12.9742L20.8125 14.8492C21.1094 14.9806 21.3567 15.2033 21.5185 15.4848C21.6803 15.7663 21.7483 16.092 21.7125 16.4148C21.5467 17.6808 20.9267 18.8435 19.9679 19.6867C19.0092 20.53 17.7768 20.9963 16.5 20.9992ZM7.77187 3.77728C6.86714 3.89358 6.03582 4.33566 5.43356 5.02076C4.8313 5.70585 4.4994 6.58697 4.5 7.49915C4.50248 10.681 5.76756 13.7318 8.01746 15.9817C10.2674 18.2316 13.3182 19.4967 16.5 19.4992C17.4122 19.4998 18.2933 19.1679 18.9784 18.5656C19.6635 17.9633 20.1056 17.132 20.2219 16.2273L15.825 14.3523L13.4812 15.9179C13.2656 16.0605 13.0168 16.1449 12.7589 16.163C12.501 16.181 12.2428 16.1321 12.0094 16.021C10.2628 15.1761 8.84994 13.7699 7.99687 12.0273C7.8844 11.7946 7.83393 11.5369 7.85036 11.279C7.86678 11.0211 7.94955 10.7719 8.09062 10.5554L9.65625 8.17415L7.77187 3.77728Z" fill="#626CA9"/>
</svg>
