<svg width="18" height="18" viewBox="0 0 18 18" fill="none" xmlns="http://www.w3.org/2000/svg">
<path d="M9.00002 1.50391C11.0711 1.50391 12.75 3.18284 12.75 5.25391C12.75 7.32498 11.0711 9.00392 9.00002 9.00392C6.92893 9.00392 5.25 7.32498 5.25 5.25391C5.25 3.18284 6.92893 1.50391 9.00002 1.50391ZM9.00002 2.62891C7.55027 2.62891 6.375 3.80416 6.375 5.25391C6.375 6.70366 7.55027 7.87892 9.00002 7.87892C10.4498 7.87892 11.625 6.70366 11.625 5.25391C11.625 3.80416 10.4498 2.62891 9.00002 2.62891Z" fill="#B5B5B5"/>
<path d="M13.3159 16.5009C14.2474 16.5009 15.0025 15.7458 15.0025 14.8142V14.3827C15.0025 13.7119 14.7628 13.0633 14.3267 12.5538C13.1497 11.1787 11.3593 10.5001 9.00029 10.5001C6.64087 10.5001 4.85136 11.1789 3.67664 12.5546C3.24182 13.0638 3.00293 13.7114 3.00293 14.381V14.8142C3.00293 15.7458 3.75807 16.5009 4.68958 16.5009H13.3159ZM13.3159 15.3759H4.68958C4.37939 15.3759 4.12793 15.1244 4.12793 14.8142V14.381C4.12793 13.9792 4.27126 13.5907 4.53216 13.2852C5.47213 12.1844 6.94654 11.6251 9.00029 11.6251C11.054 11.6251 12.5297 12.1844 13.4721 13.2853C13.7338 13.5911 13.8775 13.9803 13.8775 14.3827V14.8142C13.8775 15.1244 13.6261 15.3759 13.3159 15.3759Z" fill="#B5B5B5"/>
</svg>
