<svg width="30" height="30" viewBox="0 0 30 30" fill="none" xmlns="http://www.w3.org/2000/svg">
<g clip-path="url(#clip0_92669_4672)">
<path d="M12.75 2.12891C12.75 1.50759 12.2463 1.00391 11.625 1.00391C11.0037 1.00391 10.5 1.50759 10.5 2.12891V3.25707C10.5 4.20576 10.7936 5.08589 11.2948 5.81156C9.20554 6.53009 7.67259 8.44458 7.51363 10.7374H7.14368L7.12972 10.7373C5.26578 10.7296 3.76099 9.21235 3.7687 7.34841L3.77792 5.12001C3.78048 4.4987 3.27889 3.99294 2.65758 3.99038C2.03626 3.9878 1.53051 4.4894 1.52795 5.11071L1.51872 7.33911C1.50588 10.4457 4.01385 12.9745 7.12043 12.9873L7.14368 12.9874H7.5V15.2519H1.125C0.503685 15.2519 0 15.7556 0 16.3769C0 16.9982 0.503685 17.5019 1.125 17.5019H7.5V20.4903H7.14368H7.12043C4.01385 20.5032 1.50588 23.0321 1.51872 26.1386L1.52795 28.367C1.53051 28.9883 2.03626 29.4899 2.65758 29.4873C3.27889 29.4848 3.78048 28.979 3.77792 28.3577L3.7687 26.1293C3.76099 24.2654 5.26578 22.7481 7.12972 22.7403H7.14368H7.83949C8.79139 25.7895 11.6372 28.0026 15 28.0026C18.3627 28.0026 21.2087 25.7895 22.1606 22.7403H22.8562H22.8702C24.7342 22.7481 26.239 24.2654 26.2312 26.1293L26.2221 28.3577C26.2195 28.979 26.7211 29.4848 27.3424 29.4873C27.9638 29.4899 28.4695 28.9883 28.4721 28.367L28.4812 26.1386C28.4941 23.0321 25.9862 20.5032 22.8795 20.4903H22.8562H22.5V17.5019H28.8771C29.4984 17.5019 30.0021 16.9982 30.0021 16.3769C30.0021 15.7556 29.4984 15.2519 28.8771 15.2519H22.5V12.9874H22.8562L22.8795 12.9873C25.9862 12.9745 28.4941 10.4457 28.4812 7.33911L28.4721 5.11071C28.4695 4.4894 27.9638 3.9878 27.3424 3.99038C26.7211 3.99294 26.2195 4.4987 26.2221 5.12001L26.2312 7.34841C26.239 9.21235 24.7342 10.7296 22.8702 10.7373L22.8562 10.7374H22.4864C22.3274 8.44458 20.7945 6.53009 18.7052 5.81157C19.2065 5.0859 19.5 4.20578 19.5 3.25707V2.12891C19.5 1.50759 18.9963 1.00391 18.375 1.00391C17.7537 1.00391 17.25 1.50759 17.25 2.12891V3.25707C17.25 4.49972 16.2426 5.50707 15 5.50707C13.7574 5.50707 12.75 4.49972 12.75 3.25707V2.12891ZM9.75 11.1321C9.75 9.26816 11.261 7.75712 13.125 7.75712H16.875C18.7389 7.75712 20.25 9.26816 20.25 11.1321V20.5026C20.25 23.4021 17.8995 25.7526 15 25.7526C12.1005 25.7526 9.75 23.4021 9.75 20.5026V11.1321Z" fill="#626CA9"/>
</g>
<defs>
<clipPath id="clip0_92669_4672">
<rect width="30" height="30" fill="white"/>
</clipPath>
</defs>
</svg>
