<svg width="30" height="30" viewBox="0 0 30 30" fill="none" xmlns="http://www.w3.org/2000/svg">
<g clip-path="url(#clip0_92669_4667)">
<path d="M5.41667 0C2.42512 0 0 2.42512 0 5.41667V24.5833C0 27.5748 2.42512 30 5.41667 30H24.5833C27.5748 30 30 27.5748 30 24.5833V5.41667C30 2.42512 27.5748 0 24.5833 0H5.41667ZM2.5 5.41667C2.5 3.80583 3.80583 2.5 5.41667 2.5H24.5833C26.1942 2.5 27.5 3.80583 27.5 5.41667V24.5833C27.5 26.1942 26.1942 27.5 24.5833 27.5H5.41667C3.80583 27.5 2.5 26.1942 2.5 24.5833V5.41667ZM12.5505 10.4672C13.0387 9.97907 13.0387 9.1876 12.5505 8.69945C12.0623 8.2113 11.2709 8.2113 10.7828 8.69945L5.36612 14.1162C4.87797 14.6043 4.87797 15.3957 5.36612 15.8838L10.7828 21.3005C11.2709 21.7887 12.0623 21.7887 12.5505 21.3005C13.0387 20.8123 13.0387 20.021 12.5505 19.5328L8.01777 15L12.5505 10.4672ZM19.2172 8.69945C18.729 8.2113 17.9377 8.2113 17.4495 8.69945C16.9613 9.1876 16.9613 9.97907 17.4495 10.4672L21.9822 15L17.4495 19.5328C16.9613 20.021 16.9613 20.8123 17.4495 21.3005C17.9377 21.7887 18.729 21.7887 19.2172 21.3005L24.6338 15.8838C25.122 15.3957 25.122 14.6043 24.6338 14.1162L19.2172 8.69945Z" fill="#626CA9"/>
</g>
<defs>
<clipPath id="clip0_92669_4667">
<rect width="30" height="30" fill="white"/>
</clipPath>
</defs>
</svg>
