<svg width="30" height="30" viewBox="0 0 30 30" fill="none" xmlns="http://www.w3.org/2000/svg">
<g clip-path="url(#clip0_92669_4662)">
<path d="M27.0811 4.375C27.0811 1.6826 24.8986 -0.5 22.2061 -0.5H4.95618C2.2638 -0.5 0.0811765 1.6826 0.0811765 4.375V22.799C0.0811765 24.7544 2.43738 25.7423 3.83185 24.3716L9.87565 18.4312C9.88608 18.421 9.89626 18.4106 9.90619 18.4L12.7939 15.5722L12.9193 15.466C13.3564 15.1474 13.9705 15.1829 14.3682 15.5722L17.4868 18.6268L19.0782 17.0354L15.9424 13.9646L15.7498 13.7899C14.4324 12.6827 12.4695 12.7409 11.2198 13.9645L4.5409 20.5036H4.55739L2.33118 22.6918V4.375C2.33118 2.92525 3.50643 1.75 4.95618 1.75H22.2061C23.6559 1.75 24.8311 2.92525 24.8311 4.375V11.8486C25.5495 11.5628 26.3215 11.4527 27.0811 11.5183V4.375ZM21.8376 8.12818C21.8376 6.26246 20.3251 4.75 18.4593 4.75C16.5936 4.75 15.0811 6.26246 15.0811 8.12818C15.0811 9.99388 16.5936 11.5063 18.4593 11.5063C20.3251 11.5063 21.8376 9.99388 21.8376 8.12818ZM17.3311 8.12818C17.3311 7.50509 17.8363 7 18.4593 7C19.0824 7 19.5876 7.50509 19.5876 8.12818C19.5876 8.75125 19.0824 9.25634 18.4593 9.25634C17.8363 9.25634 17.3311 8.75125 17.3311 8.12818ZM15.3774 22.8578L24.231 14.0042C25.5699 12.6652 27.7407 12.6652 29.0796 14.0042C30.4185 15.3431 30.4185 17.5139 29.0796 18.8528L20.226 27.7064C19.7098 28.2227 19.063 28.5889 18.3547 28.7659L15.6087 29.4524C15.534 29.4712 15.4596 29.4844 15.3861 29.4926C14.4996 29.7986 10.9165 30.3535 9.64453 29.3608C8.78284 28.6882 8.95435 27.3592 9.31812 26.633C9.3763 26.5169 9.28831 26.3647 9.15996 26.3848C8.1688 26.5396 7.29525 27.0607 6.42025 27.5828C5.24436 28.2844 4.0659 28.9874 2.59603 28.8049C1.12773 28.6223 0.393911 27.7162 0.0308815 26.9233C-0.117484 26.5993 0.300266 26.3213 0.613076 26.4922C1.31601 26.8757 2.27163 27.2359 3.0597 27.0616C3.62238 26.9371 4.41543 26.3761 5.3041 25.7474C6.90201 24.6172 8.80909 23.2681 10.2422 23.8447C11.5006 24.3511 12.4311 25.5713 11.787 27.0148C11.7079 27.1918 11.7874 27.4097 11.9764 27.4532C12.6114 27.5987 13.1436 27.5527 13.6759 27.2969L14.3179 24.7291C14.4949 24.0208 14.8611 23.374 15.3774 22.8578Z" fill="#626CA9"/>
</g>
<defs>
<clipPath id="clip0_92669_4662">
<rect width="30" height="30" fill="white"/>
</clipPath>
</defs>
</svg>
