<svg aria-hidden="true" style="position: absolute; width: 0; height: 0; overflow: hidden;" version="1.1" xmlns="http://www.w3.org/2000/svg" xmlns:xlink="http://www.w3.org/1999/xlink">
<defs>
<symbol id="icon-calendar-icon" viewBox="0 0 32 32">
<path d="M28.797 5.2c0-2.872-2.328-5.2-5.2-5.2h-18.398c-2.872 0-5.2 2.328-5.2 5.2v18.398c0 2.872 2.328 5.2 5.2 5.2h7.864l0.569-2.277c0.010-0.041 0.021-0.082 0.032-0.123h-8.465c-1.546 0-2.8-1.253-2.8-2.8v-14.799h23.998v4.371c0.766-0.305 1.59-0.422 2.4-0.352v-7.619zM5.2 2.4h18.398c1.546 0 2.8 1.253 2.8 2.8v1.2h-23.998v-1.2c0-1.546 1.253-2.8 2.8-2.8zM25.757 15.47l-9.443 9.443c-0.551 0.551-0.941 1.241-1.13 1.996l-0.732 2.929c-0.319 1.274 0.835 2.428 2.109 2.109l2.929-0.732c0.755-0.189 1.445-0.579 1.996-1.13l9.443-9.443c1.428-1.428 1.428-3.744 0-5.172s-3.743-1.428-5.172 0z"></path>
</symbol>
<symbol id="icon-arrow" viewBox="0 0 32 32">
<path d="M21.962 6h-18.962c-1.657 0-3-1.343-3-3s1.343-3 3-3h26c1.657 0 3 1.343 3 3v26c0 1.657-1.343 3-3 3s-3-1.343-3-3v-18.554l-20.889 20.686c-1.177 1.166-3.077 1.156-4.242-0.021s-1.157-3.077 0.020-4.242l21.073-20.869z"></path>
</symbol>
<symbol id="icon-discord-logo" viewBox="0 0 114 32">
<path d="M24.075 7.215c-1.84-0.861-3.807-1.486-5.863-1.842-0.253 0.457-0.548 1.071-0.751 1.559-2.186-0.329-4.352-0.329-6.498 0-0.203-0.489-0.505-1.103-0.76-1.559-2.059 0.356-4.028 0.984-5.868 1.847-3.711 5.607-4.717 11.075-4.214 16.466 2.461 1.838 4.846 2.954 7.191 3.685 0.579-0.797 1.095-1.644 1.54-2.537-0.847-0.322-1.659-0.719-2.425-1.18 0.203-0.151 0.402-0.308 0.595-0.47 4.676 2.187 9.757 2.187 14.378 0 0.194 0.162 0.393 0.32 0.595 0.47-0.769 0.463-1.583 0.861-2.43 1.183 0.445 0.89 0.959 1.74 1.54 2.537 2.347-0.731 4.734-1.847 7.196-3.687 0.59-6.249-1.008-11.667-4.225-16.47zM9.489 20.37c-1.404 0-2.555-1.311-2.555-2.906s1.127-2.909 2.555-2.909c1.428 0 2.58 1.31 2.555 2.909 0.002 1.596-1.127 2.906-2.555 2.906zM18.931 20.37c-1.404 0-2.555-1.311-2.555-2.906s1.127-2.909 2.555-2.909c1.428 0 2.58 1.31 2.555 2.909 0 1.596-1.127 2.906-2.555 2.906z"></path>
<path d="M38.19 10.985h6.102c1.471 0 2.714 0.235 3.733 0.703 1.017 0.468 1.779 1.121 2.284 1.957s0.76 1.792 0.76 2.87c0 1.055-0.264 2.011-0.791 2.868-0.527 0.858-1.33 1.537-2.41 2.037s-2.417 0.751-4.015 0.751h-5.664v-11.185zM43.792 19.327c0.99 0 1.753-0.253 2.285-0.758 0.532-0.507 0.798-1.196 0.798-2.071 0-0.811-0.237-1.457-0.711-1.941s-1.191-0.728-2.151-0.728h-1.909v5.498h1.688z"></path>
<path d="M60.206 22.156c-0.845-0.224-1.607-0.548-2.285-0.975v-2.653c0.512 0.404 1.198 0.737 2.059 1 0.861 0.26 1.692 0.39 2.497 0.39 0.376 0 0.66-0.050 0.852-0.151s0.289-0.221 0.289-0.361c0-0.16-0.051-0.292-0.157-0.4s-0.309-0.196-0.61-0.272l-1.878-0.432c-1.075-0.256-1.838-0.61-2.291-1.064-0.454-0.452-0.68-1.046-0.68-1.781 0-0.619 0.197-1.155 0.595-1.614 0.395-0.459 0.959-0.813 1.69-1.062 0.731-0.251 1.585-0.377 2.566-0.377 0.876 0 1.679 0.096 2.41 0.288s1.334 0.436 1.815 0.735v2.509c-0.492-0.299-1.056-0.534-1.699-0.712-0.642-0.176-1.301-0.263-1.981-0.263-0.981 0-1.471 0.171-1.471 0.511 0 0.16 0.076 0.279 0.228 0.358s0.431 0.162 0.836 0.249l1.565 0.288c1.022 0.18 1.784 0.498 2.285 0.95s0.751 1.121 0.751 2.007c0 0.97-0.413 1.74-1.243 2.311s-2.005 0.856-3.53 0.856c-0.896-0.002-1.768-0.114-2.613-0.338z"></path>
<path d="M71.285 21.82c-0.896-0.448-1.573-1.055-2.025-1.822s-0.679-1.63-0.679-2.589c0-0.959 0.235-1.817 0.704-2.573s1.158-1.349 2.065-1.781 1.992-0.646 3.255-0.646c1.565 0 2.863 0.336 3.897 1.007v2.925c-0.365-0.256-0.789-0.463-1.275-0.623s-1.003-0.24-1.558-0.24c-0.97 0-1.727 0.18-2.275 0.543s-0.823 0.836-0.823 1.422c0 0.575 0.266 1.046 0.798 1.416 0.532 0.368 1.303 0.553 2.316 0.553 0.521 0 1.035-0.078 1.542-0.231 0.505-0.155 0.941-0.345 1.305-0.569v2.829c-1.146 0.703-2.477 1.055-3.99 1.055-1.274-0.005-2.361-0.228-3.257-0.676z"></path>
<path d="M82.404 21.82c-0.903-0.447-1.591-1.059-2.066-1.838-0.473-0.779-0.713-1.646-0.713-2.605s0.237-1.815 0.713-2.566 1.161-1.34 2.059-1.767c0.896-0.427 1.967-0.639 3.207-0.639s2.311 0.212 3.208 0.639c0.896 0.427 1.581 1.011 2.050 1.758s0.704 1.603 0.704 2.573c0 0.959-0.235 1.827-0.704 2.605s-1.156 1.39-2.059 1.838c-0.903 0.447-1.969 0.671-3.201 0.671s-2.298-0.221-3.199-0.669zM87.158 18.985c0.381-0.388 0.573-0.902 0.573-1.541s-0.19-1.148-0.573-1.525c-0.379-0.379-0.899-0.569-1.555-0.569-0.669 0-1.192 0.19-1.574 0.569-0.38 0.379-0.57 0.886-0.57 1.525s0.19 1.153 0.57 1.541c0.381 0.388 0.905 0.584 1.574 0.584 0.657-0.002 1.176-0.196 1.555-0.584z"></path>
<path d="M100.968 12.999v3.452c-0.397-0.267-0.912-0.4-1.549-0.4-0.834 0-1.478 0.258-1.925 0.774-0.449 0.516-0.673 1.32-0.673 2.406v2.941h-3.833v-9.349h3.755v2.973c0.208-1.087 0.545-1.888 1.011-2.406 0.463-0.516 1.061-0.774 1.79-0.774 0.552 0 1.027 0.128 1.424 0.384z"></path>
<path d="M113.705 10.665v11.507h-3.834v-2.094c-0.324 0.788-0.815 1.388-1.477 1.799-0.662 0.409-1.48 0.614-2.45 0.614-0.867 0-1.623-0.215-2.269-0.646s-1.144-1.023-1.495-1.774c-0.349-0.751-0.525-1.6-0.525-2.55-0.011-0.979 0.174-1.858 0.557-2.637 0.38-0.779 0.919-1.386 1.611-1.822s1.485-0.655 2.372-0.655c1.827 0 3.051 0.81 3.677 2.429v-4.171h3.834zM109.299 18.921c0.391-0.388 0.586-0.893 0.586-1.509 0-0.596-0.19-1.082-0.57-1.454s-0.901-0.559-1.556-0.559c-0.646 0-1.162 0.189-1.549 0.568s-0.579 0.87-0.579 1.477 0.192 1.103 0.579 1.486c0.387 0.384 0.897 0.575 1.533 0.575 0.646-0.002 1.165-0.196 1.556-0.584z"></path>
<path d="M54.301 13.818c1.055 0 1.911-0.785 1.911-1.753s-0.856-1.753-1.911-1.753c-1.056 0-1.911 0.785-1.911 1.753s0.856 1.753 1.911 1.753z"></path>
<path d="M52.388 15.026c1.171 0.516 2.624 0.539 3.822 0v7.196h-3.822v-7.196z"></path>
</symbol>
<symbol id="icon-draw-icon" viewBox="0 0 32 32">
<path d="M28.887 4.667c0-2.872-2.328-5.2-5.2-5.2h-18.4c-2.872 0-5.2 2.328-5.2 5.2v19.652c0 2.086 2.513 3.14 4.001 1.677l6.447-6.336c0.011-0.011 0.022-0.022 0.033-0.033l3.080-3.016 0.134-0.113c0.466-0.34 1.121-0.302 1.546 0.113l3.327 3.258 1.698-1.698-3.345-3.276-0.205-0.186c-1.405-1.181-3.499-1.119-4.832 0.186l-7.124 6.975h0.018l-2.375 2.334v-19.538c0-1.546 1.254-2.8 2.8-2.8h18.4c1.546 0 2.8 1.254 2.8 2.8v7.972c0.766-0.305 1.59-0.422 2.4-0.352v-7.62zM23.293 8.67c0-1.99-1.613-3.603-3.604-3.603s-3.603 1.613-3.603 3.603 1.613 3.603 3.603 3.603c1.99 0 3.604-1.613 3.604-3.603zM18.486 8.67c0-0.665 0.539-1.203 1.203-1.203s1.204 0.539 1.204 1.203-0.539 1.203-1.204 1.203c-0.665 0-1.203-0.539-1.203-1.203zM16.403 24.382l9.444-9.444c1.428-1.428 3.744-1.428 5.172 0s1.428 3.744 0 5.172l-9.444 9.444c-0.551 0.551-1.241 0.941-1.996 1.13l-2.929 0.732c-0.080 0.020-0.159 0.034-0.237 0.043-0.946 0.326-4.768 0.918-6.124-0.141-0.919-0.717-0.736-2.135-0.348-2.91 0.062-0.124-0.032-0.286-0.169-0.265-1.057 0.165-1.989 0.721-2.922 1.278-1.254 0.748-2.511 1.498-4.079 1.304-1.566-0.195-2.349-1.161-2.736-2.007-0.158-0.346 0.287-0.642 0.621-0.46 0.75 0.409 1.769 0.793 2.61 0.607 0.6-0.133 1.446-0.731 2.394-1.402 1.704-1.206 3.739-2.645 5.267-2.030 1.342 0.54 2.335 1.842 1.648 3.381-0.084 0.189 0 0.421 0.202 0.468 0.677 0.155 1.245 0.106 1.813-0.167l0.685-2.739c0.189-0.756 0.579-1.445 1.13-1.996z"></path>
</symbol>
<symbol id="icon-facebook-icon" viewBox="0 0 32 32">
<path d="M21.329 5.313h2.921v-5.088c-0.504-0.069-2.237-0.225-4.256-0.225-4.212 0-7.097 2.649-7.097 7.519v4.481h-4.648v5.688h4.648v14.312h5.699v-14.311h4.46l0.708-5.688h-5.169v-3.919c0.001-1.644 0.444-2.769 2.735-2.769z"></path>
</symbol>
<symbol id="icon-linkedin-icon" viewBox="0 0 32 32">
<path d="M31.992 32.001v-0.001h0.008v-11.736c0-5.741-1.236-10.164-7.948-10.164-3.227 0-5.392 1.771-6.276 3.449h-0.093v-2.913h-6.364v21.364h6.627v-10.579c0-2.785 0.528-5.479 3.977-5.479 3.399 0 3.449 3.179 3.449 5.657v10.401h6.62z"></path>
<path d="M0.528 10.637h6.635v21.364h-6.635v-21.364z"></path>
<path d="M3.843 0c-2.121 0-3.843 1.721-3.843 3.843s1.721 3.879 3.843 3.879c2.121 0 3.843-1.757 3.843-3.879-0.001-2.121-1.723-3.843-3.843-3.843v0z"></path>
</symbol>
<symbol id="icon-location-icon" viewBox="0 0 32 32">
<path d="M7.791 6.091c4.534-4.534 11.885-4.534 16.419 0s4.534 11.885 0 16.419l-1.583 1.565c-1.166 1.145-2.68 2.617-4.541 4.416-1.163 1.125-3.008 1.124-4.171-0l-4.655-4.528c-0.585-0.574-1.075-1.059-1.469-1.453-4.534-4.534-4.534-11.885 0-16.419zM22.795 7.505c-3.753-3.753-9.837-3.753-13.59 0s-3.753 9.837 0 13.59l1.983 1.957c1.092 1.069 2.464 2.402 4.117 4.001 0.388 0.375 1.003 0.375 1.39 0l4.527-4.402c0.625-0.614 1.15-1.132 1.573-1.556 3.753-3.753 3.753-9.837 0-13.59zM16 10.665c2.21 0 4.002 1.792 4.002 4.002s-1.792 4.002-4.002 4.002c-2.21 0-4.002-1.792-4.002-4.002s1.792-4.002 4.002-4.002zM16 12.665c-1.106 0-2.002 0.896-2.002 2.002s0.896 2.002 2.002 2.002c1.106 0 2.002-0.896 2.002-2.002s-0.896-2.002-2.002-2.002z"></path>
</symbol>
<symbol id="icon-phone-icon" viewBox="0 0 32 32">
<path d="M22 27.999c-9.925 0-18-8.075-18-18 0.004-1.702 0.626-3.346 1.75-4.624s2.675-2.105 4.363-2.326c0.43-0.048 0.865 0.043 1.24 0.259s0.672 0.546 0.848 0.941l2.513 5.863c0.13 0.304 0.183 0.636 0.152 0.966s-0.143 0.646-0.327 0.922l-2.075 3.175c0.94 1.907 2.488 3.446 4.4 4.375l3.137-2.088c0.275-0.185 0.592-0.297 0.923-0.326s0.662 0.028 0.965 0.163l5.863 2.5c0.396 0.175 0.726 0.472 0.941 0.847s0.306 0.81 0.259 1.24c-0.221 1.688-1.048 3.238-2.326 4.363s-2.921 1.746-4.624 1.75zM10.363 5.036c-1.206 0.155-2.315 0.745-3.118 1.658s-1.246 2.088-1.245 3.305c0.003 4.242 1.69 8.31 4.69 11.31s7.068 4.687 11.31 4.69c1.216 0.001 2.391-0.442 3.305-1.245s1.503-1.911 1.658-3.118l-5.863-2.5-3.125 2.087c-0.287 0.19-0.619 0.303-0.963 0.327s-0.688-0.041-0.999-0.189c-2.329-1.127-4.213-3.001-5.35-5.325-0.15-0.31-0.217-0.654-0.195-0.998s0.132-0.676 0.32-0.965l2.088-3.175-2.513-5.862z"></path>
</symbol>
<symbol id="icon-twitter-icon" viewBox="0 0 32 32">
<path d="M32 6.078c-1.19 0.522-2.458 0.868-3.78 1.036 1.36-0.812 2.398-2.088 2.886-3.626-1.268 0.756-2.668 1.29-4.16 1.588-1.204-1.282-2.92-2.076-4.792-2.076-3.632 0-6.556 2.948-6.556 6.562 0 0.52 0.044 1.020 0.152 1.496-5.454-0.266-10.28-2.88-13.522-6.862-0.566 0.982-0.898 2.106-0.898 3.316 0 2.272 1.17 4.286 2.914 5.452-1.054-0.020-2.088-0.326-2.964-0.808 0 0.020 0 0.046 0 0.072 0 3.188 2.274 5.836 5.256 6.446-0.534 0.146-1.116 0.216-1.72 0.216-0.42 0-0.844-0.024-1.242-0.112 0.85 2.598 3.262 4.508 6.13 4.57-2.232 1.746-5.066 2.798-8.134 2.798-0.538 0-1.054-0.024-1.57-0.090 2.906 1.874 6.35 2.944 10.064 2.944 12.072 0 18.672-10 18.672-18.668 0-0.29-0.010-0.57-0.024-0.848 1.302-0.924 2.396-2.078 3.288-3.406z"></path>
</symbol>
<symbol id="icon-user-icon" viewBox="0 0 32 32">
<path d="M16 2.674c3.682 0 6.667 2.985 6.667 6.667s-2.985 6.667-6.667 6.667c-3.682 0-6.667-2.985-6.667-6.667s2.985-6.667 6.667-6.667zM16 4.674c-2.577 0-4.667 2.089-4.667 4.667s2.089 4.667 4.667 4.667c2.577 0 4.667-2.089 4.667-4.667s-2.089-4.667-4.667-4.667z"></path>
<path d="M23.673 29.335c1.656 0 2.998-1.342 2.998-2.999v-0.767c0-1.193-0.426-2.346-1.201-3.251-2.092-2.445-5.275-3.651-9.469-3.651s-7.376 1.207-9.464 3.652c-0.773 0.905-1.198 2.057-1.198 3.247v0.77c0 1.656 1.342 2.999 2.998 2.999h15.336zM23.673 27.335h-15.336c-0.551 0-0.998-0.447-0.998-0.999v-0.77c0-0.714 0.255-1.405 0.719-1.948 1.671-1.957 4.292-2.951 7.943-2.951s6.274 0.994 7.95 2.951c0.465 0.544 0.721 1.236 0.721 1.951v0.767c0 0.551-0.447 0.999-0.998 0.999z"></path>
</symbol>
<symbol id="icon-Vector" viewBox="0 0 40 32">
<path d="M6.5 0h27c3.466 0 6.298 2.713 6.49 6.131l0.010 0.369v19c0 3.466-2.713 6.298-6.131 6.49l-0.369 0.010h-27c-3.466 0-6.298-2.713-6.49-6.131l-0.010-0.369v-19c0-3.466 2.713-6.298 6.131-6.49l0.369-0.010zM37 10.746l-16.301 8.581c-0.375 0.197-0.812 0.225-1.205 0.085l-0.192-0.085-16.301-8.579v14.752c0 1.836 1.414 3.342 3.213 3.488l0.287 0.012h27c1.836 0 3.342-1.414 3.488-3.213l0.012-0.287v-14.754zM33.5 3h-27c-1.836 0-3.342 1.414-3.488 3.213l-0.012 0.287v0.858l17 8.947 17-8.949v-0.856c0-1.836-1.414-3.342-3.213-3.488l-0.287-0.012z"></path>
</symbol>
<symbol id="icon-bug-icon" viewBox="0 0 32 32">
<path d="M13.6 2.271c0-0.663-0.537-1.2-1.2-1.2s-1.2 0.537-1.2 1.2v1.203c0 1.012 0.313 1.951 0.848 2.725-2.229 0.766-3.864 2.809-4.033 5.254l-0.409-0c-1.988-0.008-3.593-1.627-3.585-3.615l0.010-2.377c0.003-0.663-0.532-1.202-1.195-1.205s-1.202 0.532-1.205 1.195l-0.010 2.377c-0.014 3.314 2.661 6.011 5.975 6.025l0.025 0h0.38v2.415h-6.8c-0.663 0-1.2 0.537-1.2 1.2s0.537 1.2 1.2 1.2h6.8v3.188h-0.405c-3.314 0.014-5.989 2.711-5.975 6.025l0.010 2.377c0.003 0.663 0.542 1.198 1.205 1.195s1.198-0.542 1.195-1.205l-0.010-2.377c-0.008-1.988 1.597-3.607 3.585-3.615h0.757c1.015 3.252 4.051 5.613 7.638 5.613s6.623-2.361 7.638-5.613h0.757c1.988 0.008 3.593 1.627 3.585 3.615l-0.010 2.377c-0.003 0.663 0.532 1.202 1.195 1.205s1.202-0.532 1.205-1.195l0.010-2.377c0.014-3.314-2.661-6.011-5.975-6.025h-0.405v-3.188h6.802c0.663 0 1.2-0.537 1.2-1.2s-0.537-1.2-1.2-1.2h-6.802v-2.415l0.405-0c3.314-0.014 5.989-2.711 5.975-6.025l-0.010-2.377c-0.003-0.663-0.542-1.198-1.205-1.195s-1.198 0.542-1.195 1.205l0.010 2.377c0.008 1.988-1.597 3.607-3.585 3.615l-0.015 0h-0.394c-0.17-2.446-1.805-4.488-4.033-5.254 0.535-0.774 0.848-1.713 0.848-2.725v-1.203c0-0.663-0.537-1.2-1.2-1.2s-1.2 0.537-1.2 1.2v1.203c0 1.325-1.075 2.4-2.4 2.4s-2.4-1.075-2.4-2.4v-1.203zM10.4 11.874c0-1.988 1.612-3.6 3.6-3.6h4c1.988 0 3.6 1.612 3.6 3.6v9.995c0 3.093-2.507 5.6-5.6 5.6s-5.6-2.507-5.6-5.6v-9.995z"></path>
</symbol>
<symbol id="icon-code-icon" viewBox="0 0 32 32">
<path d="M5.778 0c-3.191 0-5.778 2.587-5.778 5.778v20.444c0 3.191 2.587 5.778 5.778 5.778h20.444c3.191 0 5.778-2.587 5.778-5.778v-20.444c0-3.191-2.587-5.778-5.778-5.778h-20.444zM2.667 5.778c0-1.718 1.393-3.111 3.111-3.111h20.444c1.718 0 3.111 1.393 3.111 3.111v20.444c0 1.718-1.393 3.111-3.111 3.111h-20.444c-1.718 0-3.111-1.393-3.111-3.111v-20.444zM13.387 11.165c0.521-0.521 0.521-1.365 0-1.886s-1.365-0.521-1.886 0l-5.778 5.778c-0.521 0.521-0.521 1.365 0 1.885l5.778 5.778c0.521 0.521 1.365 0.521 1.886 0s0.521-1.365 0-1.886l-4.835-4.835 4.835-4.835zM20.498 9.279c-0.521-0.521-1.365-0.521-1.886 0s-0.521 1.365 0 1.886l4.835 4.835-4.835 4.835c-0.521 0.521-0.521 1.365 0 1.886s1.365 0.521 1.886 0l5.778-5.778c0.521-0.521 0.521-1.365 0-1.885l-5.778-5.778z"></path>
</symbol>
<symbol id="icon-instagram-icon" viewBox="0 0 32 32">
<path d="M31.969 9.408c-0.075-1.7-0.35-2.869-0.744-3.882-0.406-1.075-1.032-2.038-1.851-2.838-0.8-0.813-1.769-1.444-2.832-1.844-1.019-0.394-2.182-0.669-3.882-0.744-1.713-0.081-2.257-0.1-6.601-0.1s-4.888 0.019-6.595 0.094c-1.7 0.075-2.869 0.35-3.882 0.744-1.075 0.406-2.038 1.031-2.838 1.85-0.813 0.8-1.444 1.769-1.844 2.832-0.394 1.019-0.669 2.182-0.744 3.882-0.081 1.713-0.1 2.257-0.1 6.601s0.019 4.888 0.094 6.595c0.075 1.7 0.35 2.869 0.744 3.882 0.406 1.075 1.038 2.038 1.85 2.838 0.8 0.813 1.769 1.444 2.832 1.844 1.019 0.394 2.182 0.669 3.882 0.744 1.706 0.075 2.25 0.094 6.595 0.094s4.888-0.019 6.595-0.094c1.7-0.075 2.869-0.35 3.882-0.744 2.151-0.832 3.851-2.532 4.682-4.682 0.394-1.019 0.669-2.182 0.744-3.882 0.075-1.707 0.094-2.251 0.094-6.595s-0.006-4.888-0.081-6.595zM29.087 22.473c-0.069 1.563-0.331 2.407-0.55 2.969-0.538 1.394-1.644 2.5-3.038 3.038-0.563 0.219-1.413 0.481-2.969 0.55-1.688 0.075-2.194 0.094-6.464 0.094s-4.782-0.019-6.464-0.094c-1.563-0.069-2.407-0.331-2.969-0.55-0.694-0.256-1.325-0.663-1.838-1.194-0.531-0.519-0.938-1.144-1.194-1.838-0.219-0.563-0.481-1.413-0.55-2.969-0.075-1.688-0.094-2.194-0.094-6.464s0.019-4.782 0.094-6.464c0.069-1.563 0.331-2.407 0.55-2.969 0.256-0.694 0.663-1.325 1.2-1.838 0.519-0.531 1.144-0.938 1.838-1.194 0.563-0.219 1.413-0.481 2.969-0.55 1.688-0.075 2.194-0.094 6.464-0.094 4.276 0 4.782 0.019 6.464 0.094 1.563 0.069 2.407 0.331 2.969 0.55 0.694 0.256 1.325 0.662 1.838 1.194 0.531 0.519 0.938 1.144 1.194 1.838 0.219 0.563 0.481 1.413 0.55 2.969 0.075 1.688 0.094 2.194 0.094 6.464s-0.019 4.77-0.094 6.458z"></path>
<path d="M16.059 7.781c-4.538 0-8.22 3.682-8.22 8.22s3.682 8.22 8.22 8.22c4.539 0 8.22-3.682 8.22-8.22s-3.682-8.22-8.22-8.22zM16.059 21.334c-2.944 0-5.332-2.388-5.332-5.332s2.388-5.332 5.332-5.332c2.944 0 5.332 2.388 5.332 5.332s-2.388 5.332-5.332 5.332z"></path>
<path d="M26.524 7.457c0 1.060-0.859 1.919-1.919 1.919s-1.919-0.859-1.919-1.919c0-1.060 0.859-1.919 1.919-1.919s1.919 0.859 1.919 1.919z"></path>
</symbol>
<symbol id="icon-mail-icon" viewBox="0 0 32 32">
<path d="M7.001 5.334h18c2.311 0 4.199 1.809 4.327 4.087l0.007 0.246v12.667c0 2.311-1.809 4.199-4.088 4.327l-0.246 0.007h-18c-2.311 0-4.199-1.809-4.326-4.087l-0.007-0.246v-12.667c0-2.311 1.809-4.199 4.087-4.326l0.246-0.007zM27.334 12.498l-10.868 5.721c-0.25 0.131-0.542 0.15-0.803 0.056l-0.128-0.056-10.868-5.72v9.835c0 1.224 0.943 2.228 2.142 2.326l0.191 0.008h18c1.224 0 2.228-0.943 2.326-2.142l0.008-0.191v-9.836zM25 7.334h-18c-1.224 0-2.228 0.943-2.326 2.142l-0.008 0.191v0.572l11.333 5.965 11.333-5.966v-0.571c0-1.224-0.943-2.228-2.142-2.326l-0.191-0.008z"></path>
</symbol>
<symbol id="icon-map" viewBox="0 0 28 32">
<path d="M5.101 4.99c5.038-5.038 13.205-5.038 18.243 0s5.038 13.205 0 18.243l-1.758 1.739c-1.296 1.272-2.978 2.908-5.046 4.907-1.292 1.249-3.342 1.249-4.634-0l-5.172-5.031c-0.65-0.638-1.194-1.176-1.632-1.615-5.038-5.038-5.038-13.205 0-18.243zM21.773 6.561c-4.17-4.17-10.93-4.17-15.1 0s-4.17 10.93 0 15.1l2.203 2.174c1.213 1.187 2.738 2.669 4.575 4.445 0.431 0.417 1.114 0.417 1.545 0l5.030-4.891c0.695-0.682 1.277-1.258 1.748-1.729 4.17-4.17 4.17-10.931 0-15.1zM14.223 10.072c2.456 0 4.447 1.991 4.447 4.447s-1.991 4.447-4.447 4.447c-2.456 0-4.447-1.991-4.447-4.447s1.991-4.447 4.447-4.447zM14.223 12.295c-1.229 0-2.224 0.996-2.224 2.225s0.996 2.224 2.224 2.224c1.229 0 2.225-0.996 2.225-2.224s-0.996-2.225-2.225-2.225z"></path>
</symbol>
<symbol id="icon-adobe-logo" viewBox="0 0 89 32">
<path d="M9.757 4h-9.757v23.333l9.757-23.333z"></path>
<path d="M16.621 4h9.744v23.333l-9.744-23.333z"></path>
<path d="M13.189 12.599l6.21 14.734h-4.074l-1.856-4.691h-4.545l4.265-10.043z"></path>
<path d="M42.282 18.838l1.15 3.299c0.038 0.083 0.095 0.121 0.197 0.121h2.212c0.121 0 0.14-0.057 0.121-0.178l-4.57-12.693c-0.019-0.102-0.038-0.121-0.14-0.121h-2.746c-0.076 0-0.121 0.057-0.121 0.14-0.038 0.667-0.095 0.871-0.178 1.068l-4.074 11.587c-0.019 0.14 0.025 0.197 0.14 0.197h1.977c0.121 0 0.178-0.038 0.222-0.159l1.087-3.261h4.723zM38.189 16.683c0.597-1.805 1.386-4.119 1.703-5.441h0.019c0.394 1.386 1.322 4.131 1.742 5.441h-3.464z"></path>
<path d="M51.838 22.456c1.189 0 2.453-0.216 3.737-0.769 0.102-0.038 0.121-0.083 0.121-0.178-0.038-0.356-0.083-0.871-0.083-1.265v-11.95c0-0.076 0-0.114-0.095-0.114h-2.155c-0.083 0-0.121 0.038-0.121 0.14v4.049c-0.337-0.038-0.572-0.057-0.852-0.057-3.477 0-5.612 2.295-5.612 5.161 0 3.324 2.193 4.983 5.059 4.983zM53.243 20.244c-0.356 0.114-0.75 0.159-1.15 0.159-1.576 0-2.867-0.89-2.867-3.051 0-1.913 1.328-3.045 3.089-3.045 0.356 0 0.667 0.038 0.928 0.14v5.797z"></path>
<path d="M62.57 12.31c-2.968 0-4.805 2.276-4.805 5.085 0 2.511 1.462 5.059 4.761 5.059 2.79 0 4.748-2.053 4.748-5.123 0-2.708-1.659-5.021-4.703-5.021zM62.449 14.306c1.678 0 2.39 1.443 2.39 3.089 0 2.034-1.049 3.045-2.269 3.045-1.506 0-2.396-1.265-2.396-3.089 0-1.875 0.947-3.045 2.276-3.045z"></path>
<path d="M69.501 8.18c-0.083 0-0.14 0.038-0.14 0.14v13.526c0 0.057 0.057 0.159 0.14 0.178 0.947 0.292 1.939 0.432 2.962 0.432 2.93 0 5.777-1.818 5.777-5.479 0-2.65-1.818-4.665-4.665-4.665-0.655 0-1.265 0.102-1.799 0.28l-0.025-4.252c0-0.14-0.038-0.159-0.178-0.159h-2.072zM75.807 17.218c0 2.193-1.501 3.223-3.121 3.223-0.337 0-0.635-0.019-0.909-0.102v-5.771c0.311-0.121 0.687-0.222 1.379-0.222 1.563 0 2.651 0.992 2.651 2.873z"></path>
<path d="M86.282 17.929c0.966 0 1.761-0.019 2.034-0.083 0.102-0.019 0.14-0.057 0.159-0.14 0.057-0.216 0.082-0.667 0.082-1.22 0-1.881-1.131-4.176-4.055-4.176-2.987 0-4.647 2.434-4.647 5.18 0 2.434 1.284 4.964 4.881 4.964 1.348 0 2.219-0.216 2.969-0.572 0.076-0.038 0.114-0.102 0.114-0.216v-1.646c0-0.095-0.057-0.114-0.114-0.076-0.75 0.318-1.564 0.477-2.453 0.477-2.015 0-2.931-1.112-2.987-2.492h4.017zM82.265 16.225c0.159-0.966 0.769-2.015 2.135-2.015 1.507 0 1.901 1.265 1.901 1.837 0 0.019 0 0.102 0 0.159-0.083 0.019-0.337 0.019-1.087 0.019h-2.949z"></path>
<path d="M9.757 4h-9.757v23.333l9.757-23.333z"></path>
<path d="M16.621 4h9.744v23.333l-9.744-23.333z"></path>
<path d="M13.189 12.599l6.21 14.734h-4.074l-1.856-4.691h-4.545l4.265-10.043z"></path>
<path d="M42.282 18.838l1.15 3.299c0.038 0.083 0.095 0.121 0.197 0.121h2.212c0.121 0 0.14-0.057 0.121-0.178l-4.57-12.693c-0.019-0.102-0.038-0.121-0.14-0.121h-2.746c-0.076 0-0.121 0.057-0.121 0.14-0.038 0.667-0.095 0.871-0.178 1.068l-4.074 11.587c-0.019 0.14 0.025 0.197 0.14 0.197h1.977c0.121 0 0.178-0.038 0.222-0.159l1.087-3.261h4.723zM38.189 16.683c0.597-1.805 1.386-4.119 1.703-5.441h0.019c0.394 1.386 1.322 4.131 1.742 5.441h-3.464z"></path>
<path d="M51.838 22.456c1.189 0 2.453-0.216 3.737-0.769 0.102-0.038 0.121-0.083 0.121-0.178-0.038-0.356-0.083-0.871-0.083-1.265v-11.95c0-0.076 0-0.114-0.095-0.114h-2.155c-0.083 0-0.121 0.038-0.121 0.14v4.049c-0.337-0.038-0.572-0.057-0.852-0.057-3.477 0-5.612 2.295-5.612 5.161 0 3.324 2.193 4.983 5.059 4.983zM53.243 20.244c-0.356 0.114-0.75 0.159-1.15 0.159-1.576 0-2.867-0.89-2.867-3.051 0-1.913 1.328-3.045 3.089-3.045 0.356 0 0.667 0.038 0.928 0.14v5.797z"></path>
<path d="M62.57 12.31c-2.968 0-4.805 2.276-4.805 5.085 0 2.511 1.462 5.059 4.761 5.059 2.79 0 4.748-2.053 4.748-5.123 0-2.708-1.659-5.021-4.703-5.021zM62.449 14.306c1.678 0 2.39 1.443 2.39 3.089 0 2.034-1.049 3.045-2.269 3.045-1.506 0-2.396-1.265-2.396-3.089 0-1.875 0.947-3.045 2.276-3.045z"></path>
<path d="M69.501 8.18c-0.083 0-0.14 0.038-0.14 0.14v13.526c0 0.057 0.057 0.159 0.14 0.178 0.947 0.292 1.939 0.432 2.962 0.432 2.93 0 5.777-1.818 5.777-5.479 0-2.65-1.818-4.665-4.665-4.665-0.655 0-1.265 0.102-1.799 0.28l-0.025-4.252c0-0.14-0.038-0.159-0.178-0.159h-2.072zM75.807 17.218c0 2.193-1.5 3.223-3.121 3.223-0.337 0-0.635-0.019-0.909-0.102v-5.771c0.311-0.121 0.687-0.222 1.379-0.222 1.563 0 2.651 0.992 2.651 2.873z"></path>
<path d="M86.282 17.929c0.966 0 1.761-0.019 2.034-0.083 0.102-0.019 0.14-0.057 0.159-0.14 0.057-0.216 0.082-0.667 0.082-1.22 0-1.881-1.131-4.176-4.055-4.176-2.987 0-4.647 2.434-4.647 5.18 0 2.434 1.284 4.964 4.881 4.964 1.348 0 2.219-0.216 2.969-0.572 0.076-0.038 0.114-0.102 0.114-0.216v-1.646c0-0.095-0.057-0.114-0.114-0.076-0.75 0.318-1.564 0.477-2.453 0.477-2.015 0-2.931-1.112-2.987-2.492h4.017zM82.265 16.225c0.159-0.966 0.769-2.015 2.135-2.015 1.507 0 1.901 1.265 1.901 1.837 0 0.019 0 0.102 0 0.159-0.083 0.019-0.337 0.019-1.087 0.019h-2.949z"></path>
</symbol>
<symbol id="icon-spotify-logo" viewBox="0 0 93 32">
<path d="M14.048 2.052c-7.732 0-14 6.268-14 14s6.268 14 14 14c7.733 0 14-6.268 14-14s-6.268-13.999-14.001-13.999l0-0.001zM20.469 22.244c-0.251 0.411-0.789 0.542-1.2 0.289-3.287-2.008-7.425-2.463-12.299-1.349-0.47 0.107-0.938-0.187-1.045-0.657s0.186-0.938 0.656-1.045c5.333-1.218 9.908-0.694 13.598 1.561 0.411 0.252 0.542 0.789 0.289 1.2zM22.182 18.432c-0.316 0.514-0.988 0.676-1.501 0.36-3.763-2.313-9.5-2.983-13.951-1.632-0.577 0.174-1.187-0.151-1.362-0.727-0.174-0.577 0.152-1.186 0.728-1.361 5.085-1.543 11.405-0.795 15.727 1.86 0.513 0.316 0.675 0.988 0.359 1.501v-0zM22.33 14.463c-4.512-2.68-11.957-2.926-16.265-1.619-0.692 0.21-1.423-0.181-1.633-0.872s0.181-1.423 0.873-1.634c4.945-1.501 13.167-1.211 18.362 1.873 0.624 0.369 0.828 1.173 0.458 1.794-0.368 0.622-1.174 0.827-1.794 0.458h-0.001zM38.138 14.976c-2.417-0.576-2.847-0.981-2.847-1.831 0-0.803 0.756-1.344 1.881-1.344 1.090 0 2.17 0.41 3.304 1.255 0.033 0.026 0.077 0.036 0.119 0.029 0.043-0.006 0.080-0.030 0.105-0.065l1.18-1.664c0.049-0.069 0.035-0.163-0.030-0.215-1.349-1.082-2.867-1.608-4.643-1.608-2.61 0-4.434 1.566-4.434 3.807 0 2.403 1.573 3.254 4.292 3.911 2.312 0.533 2.703 0.979 2.703 1.777 0 0.884-0.789 1.434-2.060 1.434-1.411 0-2.563-0.476-3.85-1.59-0.032-0.028-0.075-0.040-0.115-0.038-0.043 0.003-0.082 0.023-0.109 0.055l-1.324 1.575c-0.055 0.067-0.049 0.164 0.015 0.221 1.498 1.337 3.34 2.043 5.33 2.043 2.812 0 4.629-1.536 4.629-3.915 0.005-2.007-1.197-3.119-4.141-3.835l-0.005-0.002zM48.647 12.592c-1.219 0-2.219 0.48-3.044 1.464v-1.107c0-0.087-0.070-0.159-0.157-0.159h-2.165c-0.087 0-0.157 0.071-0.157 0.159v12.305c0 0.087 0.070 0.159 0.157 0.159h2.165c0.087 0 0.157-0.072 0.157-0.159v-3.884c0.826 0.925 1.826 1.378 3.044 1.378 2.265 0 4.559-1.744 4.559-5.077 0.003-3.334-2.29-5.078-4.557-5.078l-0.002 0zM50.689 17.67c0 1.697-1.045 2.882-2.543 2.882-1.48 0-2.596-1.239-2.596-2.882s1.117-2.882 2.596-2.882c1.473-0 2.543 1.212 2.543 2.882v0zM59.083 12.592c-2.917 0-5.203 2.246-5.203 5.114 0 2.837 2.27 5.059 5.168 5.059 2.927 0 5.219-2.239 5.219-5.095 0-2.847-2.277-5.078-5.184-5.078v-0zM59.083 20.569c-1.551 0-2.722-1.247-2.722-2.9 0-1.66 1.13-2.864 2.687-2.864 1.561 0 2.738 1.247 2.738 2.901 0 1.66-1.137 2.863-2.703 2.863zM70.496 12.79h-2.382v-2.435c0-0.087-0.071-0.159-0.157-0.159h-2.165c-0.087 0-0.159 0.071-0.159 0.159v2.435h-1.040c-0.087 0-0.157 0.071-0.157 0.159v1.86c0 0.087 0.070 0.159 0.157 0.159h1.040v4.814c0 1.944 0.968 2.931 2.879 2.931 0.775 0 1.419-0.16 2.026-0.505 0.050-0.027 0.080-0.080 0.080-0.137v-1.772c0-0.054-0.028-0.105-0.075-0.134-0.047-0.030-0.105-0.032-0.153-0.007-0.417 0.209-0.819 0.306-1.271 0.306-0.694 0-1.005-0.316-1.005-1.021v-4.474h2.382c0.087 0 0.157-0.071 0.157-0.159v-1.86c0.003-0.087-0.067-0.159-0.155-0.159l-0.002-0.001zM78.795 12.8v-0.299c0-0.88 0.337-1.272 1.093-1.272 0.451 0 0.814 0.090 1.22 0.225 0.050 0.016 0.102 0.008 0.142-0.022 0.042-0.030 0.065-0.078 0.065-0.129v-1.824c0-0.070-0.043-0.131-0.112-0.152-0.428-0.128-0.976-0.258-1.799-0.258-1.998 0-3.056 1.126-3.056 3.254v0.458h-1.040c-0.087 0-0.159 0.071-0.159 0.159v1.87c0 0.087 0.072 0.159 0.159 0.159h1.040v7.424c0 0.089 0.072 0.159 0.159 0.159h2.163c0.089 0 0.159-0.070 0.159-0.159v-7.423h2.021l3.096 7.423c-0.351 0.779-0.697 0.935-1.169 0.935-0.381 0-0.784-0.114-1.193-0.339-0.039-0.020-0.085-0.023-0.125-0.012-0.042 0.015-0.077 0.045-0.094 0.085l-0.733 1.61c-0.035 0.077-0.005 0.166 0.068 0.206 0.766 0.415 1.457 0.592 2.311 0.592 1.598 0 2.483-0.746 3.26-2.748l3.755-9.703c0.021-0.049 0.013-0.104-0.017-0.147-0.028-0.043-0.077-0.069-0.129-0.069h-2.253c-0.069 0-0.129 0.043-0.151 0.106l-2.309 6.593-2.528-6.597c-0.023-0.061-0.082-0.102-0.147-0.102l-3.698-0zM73.983 12.79h-2.165c-0.087 0-0.159 0.071-0.159 0.159v9.443c0 0.089 0.071 0.159 0.159 0.159h2.165c0.087 0 0.159-0.070 0.159-0.159v-9.442c0-0.087-0.071-0.159-0.159-0.159v-0.001zM72.913 8.49c-0.857 0-1.553 0.694-1.553 1.552s0.695 1.553 1.553 1.553c0.858 0 1.552-0.695 1.552-1.553s-0.696-1.552-1.552-1.552zM91.875 15.826c-0.856 0-1.523-0.688-1.523-1.523s0.676-1.531 1.532-1.531c0.855 0 1.523 0.688 1.523 1.523s-0.675 1.532-1.531 1.532zM91.884 12.923c-0.781 0-1.371 0.62-1.371 1.38s0.587 1.371 1.363 1.371c0.781 0 1.371-0.62 1.371-1.38s-0.587-1.371-1.362-1.371zM92.221 14.451l0.431 0.603h-0.365l-0.387-0.553h-0.333v0.553h-0.305v-1.599h0.712c0.373 0 0.617 0.19 0.617 0.51 0.001 0.262-0.151 0.422-0.369 0.486h-0.002zM91.964 13.73h-0.396v0.506h0.396c0.197 0 0.316-0.097 0.316-0.253 0-0.165-0.119-0.253-0.316-0.253z"></path>
</symbol>
<symbol id="icon-discord-logo" viewBox="0 0 114 32">
<path d="M24.075 7.215c-1.84-0.861-3.807-1.486-5.863-1.842-0.253 0.457-0.548 1.071-0.751 1.559-2.186-0.329-4.352-0.329-6.498 0-0.203-0.489-0.505-1.103-0.76-1.559-2.059 0.356-4.028 0.984-5.868 1.847-3.711 5.607-4.717 11.075-4.214 16.466 2.461 1.838 4.846 2.954 7.191 3.685 0.579-0.797 1.095-1.644 1.54-2.537-0.847-0.322-1.659-0.719-2.425-1.18 0.203-0.151 0.402-0.308 0.595-0.47 4.676 2.187 9.757 2.187 14.378 0 0.194 0.162 0.393 0.32 0.595 0.47-0.769 0.463-1.583 0.861-2.43 1.183 0.445 0.89 0.959 1.74 1.54 2.537 2.347-0.731 4.734-1.847 7.196-3.687 0.59-6.249-1.008-11.667-4.225-16.47zM9.489 20.37c-1.404 0-2.555-1.311-2.555-2.906s1.127-2.909 2.555-2.909c1.428 0 2.58 1.31 2.555 2.909 0.002 1.596-1.127 2.906-2.555 2.906zM18.931 20.37c-1.404 0-2.555-1.311-2.555-2.906s1.127-2.909 2.555-2.909c1.428 0 2.58 1.31 2.555 2.909 0 1.596-1.127 2.906-2.555 2.906z"></path>
<path d="M38.19 10.985h6.102c1.471 0 2.714 0.235 3.733 0.703 1.017 0.468 1.779 1.121 2.284 1.957s0.76 1.792 0.76 2.87c0 1.055-0.264 2.011-0.791 2.868-0.527 0.858-1.33 1.537-2.41 2.037s-2.417 0.751-4.015 0.751h-5.664v-11.185zM43.792 19.327c0.99 0 1.753-0.253 2.285-0.758 0.532-0.507 0.798-1.196 0.798-2.071 0-0.811-0.237-1.457-0.711-1.941s-1.191-0.728-2.151-0.728h-1.909v5.498h1.688z"></path>
<path d="M60.206 22.156c-0.845-0.224-1.607-0.548-2.285-0.975v-2.653c0.512 0.404 1.198 0.737 2.059 1 0.861 0.26 1.692 0.39 2.497 0.39 0.376 0 0.66-0.050 0.852-0.151s0.289-0.221 0.289-0.361c0-0.16-0.051-0.292-0.157-0.4s-0.309-0.196-0.61-0.272l-1.878-0.432c-1.075-0.256-1.838-0.61-2.291-1.064-0.454-0.452-0.68-1.046-0.68-1.781 0-0.619 0.197-1.155 0.595-1.614 0.395-0.459 0.959-0.813 1.69-1.062 0.731-0.251 1.585-0.377 2.566-0.377 0.876 0 1.679 0.096 2.41 0.288s1.334 0.436 1.815 0.735v2.509c-0.492-0.299-1.056-0.534-1.699-0.712-0.642-0.176-1.301-0.263-1.981-0.263-0.981 0-1.471 0.171-1.471 0.511 0 0.16 0.076 0.279 0.228 0.358s0.431 0.162 0.836 0.249l1.565 0.288c1.022 0.18 1.784 0.498 2.285 0.95s0.751 1.121 0.751 2.007c0 0.97-0.413 1.74-1.243 2.311s-2.005 0.856-3.53 0.856c-0.896-0.002-1.768-0.114-2.613-0.338z"></path>
<path d="M71.285 21.82c-0.896-0.448-1.573-1.055-2.025-1.822s-0.679-1.63-0.679-2.589c0-0.959 0.235-1.817 0.704-2.573s1.158-1.349 2.065-1.781 1.992-0.646 3.255-0.646c1.565 0 2.863 0.336 3.897 1.007v2.925c-0.365-0.256-0.789-0.463-1.275-0.623s-1.003-0.24-1.558-0.24c-0.97 0-1.727 0.18-2.275 0.543s-0.823 0.836-0.823 1.422c0 0.575 0.266 1.046 0.798 1.416 0.532 0.368 1.303 0.553 2.316 0.553 0.521 0 1.035-0.078 1.542-0.231 0.505-0.155 0.941-0.345 1.305-0.569v2.829c-1.146 0.703-2.477 1.055-3.99 1.055-1.274-0.005-2.361-0.228-3.257-0.676z"></path>
<path d="M82.404 21.82c-0.903-0.447-1.591-1.059-2.066-1.838-0.473-0.779-0.713-1.646-0.713-2.605s0.237-1.815 0.713-2.566 1.161-1.34 2.059-1.767c0.896-0.427 1.967-0.639 3.207-0.639s2.311 0.212 3.208 0.639c0.896 0.427 1.581 1.011 2.050 1.758s0.704 1.603 0.704 2.573c0 0.959-0.235 1.827-0.704 2.605s-1.156 1.39-2.059 1.838c-0.903 0.447-1.969 0.671-3.201 0.671s-2.298-0.221-3.199-0.669zM87.158 18.985c0.381-0.388 0.573-0.902 0.573-1.541s-0.19-1.148-0.573-1.525c-0.379-0.379-0.899-0.569-1.555-0.569-0.669 0-1.192 0.19-1.574 0.569-0.38 0.379-0.57 0.886-0.57 1.525s0.19 1.153 0.57 1.541c0.381 0.388 0.905 0.584 1.574 0.584 0.657-0.002 1.176-0.196 1.555-0.584z"></path>
<path d="M100.968 12.999v3.452c-0.397-0.267-0.912-0.4-1.549-0.4-0.834 0-1.478 0.258-1.925 0.774-0.449 0.516-0.673 1.32-0.673 2.406v2.941h-3.833v-9.349h3.755v2.973c0.208-1.087 0.545-1.888 1.011-2.406 0.463-0.516 1.061-0.774 1.79-0.774 0.552 0 1.027 0.128 1.424 0.384z"></path>
<path d="M113.705 10.665v11.507h-3.834v-2.094c-0.324 0.788-0.815 1.388-1.477 1.799-0.662 0.409-1.48 0.614-2.45 0.614-0.867 0-1.623-0.215-2.269-0.646s-1.144-1.023-1.495-1.774c-0.349-0.751-0.525-1.6-0.525-2.55-0.011-0.979 0.174-1.858 0.557-2.637 0.38-0.779 0.919-1.386 1.611-1.822s1.485-0.655 2.372-0.655c1.827 0 3.051 0.81 3.677 2.429v-4.171h3.834zM109.299 18.921c0.391-0.388 0.586-0.893 0.586-1.509 0-0.596-0.19-1.082-0.57-1.454s-0.901-0.559-1.556-0.559c-0.646 0-1.162 0.189-1.549 0.568s-0.579 0.87-0.579 1.477 0.192 1.103 0.579 1.486c0.387 0.384 0.897 0.575 1.533 0.575 0.646-0.002 1.165-0.196 1.556-0.584z"></path>
<path d="M54.301 13.818c1.055 0 1.911-0.785 1.911-1.753s-0.856-1.753-1.911-1.753c-1.056 0-1.911 0.785-1.911 1.753s0.856 1.753 1.911 1.753z"></path>
<path d="M52.388 15.026c1.171 0.516 2.624 0.539 3.822 0v7.196h-3.822v-7.196z"></path>
</symbol>
<symbol id="icon-amazon-logo" viewBox="0 0 73 32">
<path fill="var(--amazon-smile)" d="M45.29 25.205c-4.242 3.127-10.391 4.795-15.686 4.795-7.423 0-14.106-2.746-19.162-7.312-0.397-0.359-0.041-0.848 0.435-0.569 5.456 3.175 12.203 5.084 19.172 5.084 4.7 0 9.87-0.972 14.624-2.99 0.718-0.305 1.319 0.47 0.616 0.991z"></path>
<path fill="var(--amazon-smile)" d="M47.054 23.187c-0.54-0.693-3.585-0.327-4.951-0.165-0.416 0.051-0.48-0.311-0.105-0.572 2.425-1.706 6.403-1.214 6.867-0.642 0.464 0.575-0.121 4.563-2.399 6.467-0.35 0.292-0.683 0.137-0.528-0.251 0.512-1.278 1.659-4.141 1.115-4.837z"></path>
<path fill="var(--amazon-text)" d="M42.198 10.402v-1.659c0-0.251 0.191-0.419 0.419-0.419h7.427c0.238 0 0.429 0.172 0.429 0.419v1.42c-0.003 0.238-0.203 0.55-0.559 1.042l-3.848 5.494c1.43-0.035 2.939 0.178 4.236 0.909 0.292 0.165 0.372 0.407 0.394 0.645v1.77c0 0.241-0.267 0.524-0.547 0.378-2.285-1.198-5.32-1.328-7.846 0.013-0.257 0.14-0.528-0.14-0.528-0.381v-1.681c0-0.27 0.003-0.731 0.273-1.141l4.458-6.394h-3.88c-0.238 0-0.429-0.168-0.429-0.416z"></path>
<path fill="var(--amazon-text)" d="M15.107 20.753h-2.259c-0.216-0.016-0.388-0.178-0.404-0.385v-11.596c0-0.232 0.194-0.416 0.435-0.416h2.107c0.219 0.010 0.394 0.178 0.41 0.388v1.516h0.041c0.55-1.465 1.583-2.148 2.974-2.148 1.414 0 2.298 0.683 2.933 2.148 0.547-1.465 1.789-2.148 3.121-2.148 0.947 0 1.983 0.391 2.615 1.268 0.715 0.976 0.569 2.393 0.569 3.635l-0.003 7.319c0 0.232-0.194 0.419-0.435 0.419h-2.256c-0.226-0.016-0.407-0.197-0.407-0.419v-6.146c0-0.489 0.045-1.71-0.064-2.174-0.168-0.779-0.674-0.998-1.328-0.998-0.547 0-1.119 0.365-1.351 0.95s-0.21 1.563-0.21 2.221v6.146c0 0.232-0.194 0.419-0.435 0.419h-2.256c-0.229-0.016-0.407-0.197-0.407-0.419l-0.003-6.146c0-1.293 0.213-3.197-1.392-3.197-1.624 0-1.56 1.856-1.56 3.197v6.146c0 0.232-0.194 0.419-0.435 0.419z"></path>
<path fill="var(--amazon-text)" d="M56.867 8.111c3.353 0 5.167 2.879 5.167 6.54 0 3.537-2.005 6.343-5.167 6.343-3.292 0-5.084-2.879-5.084-6.467 0-3.61 1.815-6.416 5.084-6.416zM56.886 10.479c-1.665 0-1.77 2.269-1.77 3.683 0 1.417-0.022 4.443 1.751 4.443 1.751 0 1.834-2.441 1.834-3.928 0-0.979-0.041-2.148-0.337-3.076-0.254-0.807-0.759-1.122-1.478-1.122z"></path>
<path fill="var(--amazon-text)" d="M66.381 20.753h-2.25c-0.226-0.016-0.407-0.197-0.407-0.419l-0.003-11.599c0.019-0.213 0.207-0.378 0.435-0.378h2.094c0.197 0.010 0.359 0.143 0.404 0.324v1.773h0.041c0.632-1.586 1.519-2.342 3.079-2.342 1.013 0 2.002 0.365 2.637 1.366 0.591 0.928 0.591 2.488 0.591 3.61v7.299c-0.025 0.203-0.213 0.365-0.435 0.365h-2.266c-0.207-0.016-0.378-0.168-0.4-0.365v-6.298c0-1.268 0.146-3.124-1.415-3.124-0.549 0-1.055 0.369-1.306 0.928-0.317 0.709-0.359 1.414-0.359 2.196v6.244c-0.003 0.232-0.2 0.419-0.442 0.419z"></path>
<path fill="var(--amazon-text)" d="M36.278 15.214c0 0.88 0.022 1.614-0.423 2.396-0.359 0.636-0.931 1.026-1.564 1.026-0.868 0-1.376-0.661-1.376-1.637 0-1.926 1.726-2.275 3.362-2.275v0.489zM38.556 20.721c-0.149 0.133-0.365 0.143-0.534 0.054-0.75-0.623-0.887-0.912-1.297-1.506-1.239 1.265-2.12 1.643-3.724 1.643-1.903 0-3.381-1.173-3.381-3.521 0-1.834 0.991-3.083 2.409-3.693 1.227-0.54 2.939-0.636 4.249-0.785v-0.292c0-0.537 0.041-1.173-0.276-1.637-0.273-0.416-0.801-0.588-1.268-0.588-0.861 0-1.627 0.442-1.815 1.357-0.038 0.203-0.187 0.404-0.394 0.413l-2.189-0.235c-0.184-0.041-0.391-0.191-0.337-0.473 0.502-2.657 2.905-3.457 5.053-3.457 1.1 0 2.536 0.292 3.403 1.125 1.1 1.026 0.995 2.396 0.995 3.886v3.521c0 1.058 0.439 1.522 0.852 2.094 0.143 0.203 0.175 0.448-0.010 0.601-0.461 0.385-1.281 1.1-1.732 1.5l-0.003-0.006z"></path>
<path fill="var(--amazon-text)" d="M6.657 15.214c0 0.88 0.022 1.614-0.423 2.396-0.359 0.636-0.928 1.026-1.563 1.026-0.868 0-1.373-0.661-1.373-1.637 0-1.926 1.726-2.275 3.359-2.275v0.489zM8.936 20.721c-0.149 0.133-0.365 0.143-0.534 0.054-0.75-0.623-0.883-0.912-1.297-1.506-1.239 1.265-2.116 1.643-3.724 1.643-1.9 0-3.381-1.173-3.381-3.521 0-1.834 0.995-3.082 2.409-3.693 1.227-0.54 2.939-0.636 4.249-0.785v-0.292c0-0.537 0.041-1.173-0.273-1.637-0.276-0.416-0.804-0.588-1.268-0.588-0.861 0-1.63 0.442-1.818 1.357-0.038 0.203-0.188 0.404-0.391 0.413l-2.193-0.235c-0.184-0.041-0.388-0.191-0.337-0.473 0.505-2.657 2.905-3.457 5.053-3.457 1.1 0 2.536 0.292 3.403 1.125 1.099 1.026 0.995 2.396 0.995 3.886v3.521c0 1.058 0.439 1.522 0.852 2.094 0.146 0.203 0.178 0.448-0.006 0.601-0.461 0.385-1.281 1.1-1.732 1.5l-0.006-0.006z"></path>
</symbol>
<symbol id="icon-dropbox-logo" viewBox="0 0 109 32">
<path fill="var(--dropbox-text)" d="M30.034 9.342h5.081c3.24 0 5.916 1.874 5.916 6.154v0.899c0 4.312-2.503 6.252-5.818 6.252h-5.179v-13.305zM32.872 11.758v8.462h2.178c1.842 0 3.077-1.203 3.077-3.879v-0.704c0-2.676-1.3-3.879-3.175-3.879h-2.080zM42.537 11.888h2.275l0.368 2.503c0.433-1.701 1.538-2.611 3.543-2.611h0.704v2.871h-1.17c-2.308 0-2.871 0.802-2.871 3.077v4.951h-2.806v-10.791h-0.043zM49.991 17.5v-0.303c0-3.608 2.308-5.58 5.45-5.58 3.207 0 5.45 1.972 5.45 5.58v0.303c0 3.543-2.178 5.45-5.45 5.45-3.478-0.033-5.45-1.896-5.45-5.45zM58.019 17.468v-0.271c0-2.004-1.008-3.207-2.611-3.207-1.571 0-2.611 1.105-2.611 3.207v0.271c0 1.939 1.008 3.045 2.611 3.045 1.603-0.032 2.611-1.105 2.611-3.045zM62.364 11.888h2.34l0.271 2.037c0.563-1.365 1.766-2.308 3.543-2.308 2.741 0 4.551 1.972 4.551 5.623v0.303c0 3.543-2.005 5.417-4.551 5.417-1.701 0-2.871-0.769-3.445-2.004v5.45h-2.741l0.033-14.518zM70.219 17.468v-0.238c0-2.145-1.105-3.207-2.579-3.207-1.571 0-2.611 1.203-2.611 3.207v0.206c0 1.907 1.008 3.11 2.579 3.11 1.614-0.033 2.611-1.062 2.611-3.077zM77.218 20.686l-0.238 1.972h-2.405v-14.378h2.741v5.515c0.607-1.408 1.809-2.178 3.51-2.178 2.579 0.033 4.486 1.809 4.486 5.385v0.336c0 3.575-1.81 5.623-4.551 5.623-1.809-0.043-2.98-0.878-3.543-2.275zM82.43 17.338v-0.271c0-1.972-1.073-3.077-2.579-3.077-1.539 0-2.611 1.235-2.611 3.11v0.238c0 2.004 1.040 3.175 2.579 3.175 1.647 0 2.611-1.029 2.611-3.175zM86.514 17.5v-0.303c0-3.608 2.308-5.58 5.45-5.58 3.207 0 5.45 1.972 5.45 5.58v0.303c0 3.543-2.21 5.45-5.45 5.45-3.478-0.033-5.45-1.896-5.45-5.45zM94.565 17.468v-0.271c0-2.004-1.008-3.207-2.611-3.207-1.571 0-2.611 1.105-2.611 3.207v0.271c0 1.939 1.008 3.045 2.611 3.045 1.614-0.032 2.611-1.105 2.611-3.045zM101.087 17.067l-3.781-5.179h3.24l2.177 3.24 2.211-3.24h3.207l-3.835 5.146 4.041 5.623h-3.175l-2.47-3.575-2.405 3.575h-3.315l4.106-5.591z"></path>
<path fill="var(--dropbox-icon)" d="M12.568 9.342l-6.284 4.009 6.284 4.009-6.284 4.009-6.284-4.030 6.284-4.009-6.284-3.987 6.284-4.009 6.284 4.009zM6.252 22.658l6.284-4.009 6.284 4.009-6.284 4.009-6.284-4.009zM12.568 17.338l6.284-4.009-6.284-3.987 6.252-4.009 6.284 4.009-6.284 4.009 6.284 4.009-6.284 4.009-6.252-4.030z"></path>
</symbol>
<symbol id="icon-airbnb-logo" viewBox="0 0 85 32">
<path d="M45.031 9.367c0 0.961-0.774 1.735-1.735 1.735s-1.735-0.774-1.735-1.735c0-0.961 0.747-1.735 1.735-1.735 0.988 0.027 1.735 0.801 1.735 1.735zM37.877 12.864c0 0.16 0 0.427 0 0.427s-0.827-1.068-2.589-1.068c-2.91 0-5.179 2.216-5.179 5.285 0 3.043 2.242 5.285 5.179 5.285 1.788 0 2.589-1.094 2.589-1.094v0.454c0 0.214 0.16 0.374 0.374 0.374h2.162v-10.037c0 0-1.975 0-2.162 0-0.214 0-0.374 0.187-0.374 0.374zM37.877 19.297c-0.4 0.587-1.201 1.094-2.162 1.094-1.708 0-3.016-1.068-3.016-2.883s1.308-2.883 3.016-2.883c0.934 0 1.788 0.534 2.162 1.094v3.577zM42.015 12.49h2.563v10.037h-2.563v-10.037zM80.293 12.223c-1.762 0-2.589 1.068-2.589 1.068v-5.632h-2.563v14.868c0 0 1.975 0 2.162 0 0.214 0 0.374-0.187 0.374-0.374v-0.454c0 0 0.827 1.094 2.589 1.094 2.909 0 5.179-2.242 5.179-5.285s-2.269-5.285-5.152-5.285zM79.866 20.364c-0.987 0-1.761-0.507-2.162-1.094v-3.577c0.401-0.534 1.255-1.094 2.162-1.094 1.709 0 3.017 1.068 3.017 2.883s-1.308 2.883-3.017 2.883zM73.807 16.574v5.979h-2.563v-5.686c0-1.655-0.534-2.322-1.975-2.322-0.774 0-1.575 0.4-2.082 0.988v6.994h-2.562v-10.037h2.029c0.214 0 0.374 0.187 0.374 0.374v0.427c0.747-0.774 1.735-1.068 2.723-1.068 1.121 0 2.055 0.32 2.803 0.961 0.908 0.747 1.255 1.708 1.255 3.39zM58.405 12.223c-1.762 0-2.589 1.068-2.589 1.068v-5.632h-2.563v14.868c0 0 1.975 0 2.162 0 0.214 0 0.374-0.187 0.374-0.374v-0.454c0 0 0.827 1.094 2.589 1.094 2.91 0 5.178-2.242 5.178-5.285 0.027-3.043-2.242-5.285-5.152-5.285zM57.978 20.364c-0.988 0-1.762-0.507-2.162-1.094v-3.577c0.4-0.534 1.255-1.094 2.162-1.094 1.708 0 3.016 1.068 3.016 2.883s-1.308 2.883-3.016 2.883zM51.037 12.223c0.774 0 1.174 0.133 1.174 0.133v2.376c0 0-2.135-0.721-3.47 0.801v7.020h-2.563v-10.063c0 0 1.975 0 2.162 0 0.214 0 0.374 0.187 0.374 0.374v0.427c0.48-0.561 1.522-1.068 2.322-1.068zM24.424 21.619c-0.133-0.32-0.267-0.667-0.4-0.961-0.214-0.48-0.427-0.934-0.614-1.361l-0.027-0.027c-1.842-4.004-3.817-8.061-5.899-12.065l-0.080-0.16c-0.214-0.4-0.427-0.827-0.641-1.255-0.267-0.48-0.534-0.988-0.961-1.468-0.854-1.068-2.082-1.655-3.39-1.655-1.335 0-2.536 0.587-3.417 1.602-0.4 0.48-0.694 0.988-0.961 1.468-0.214 0.427-0.427 0.854-0.641 1.255l-0.080 0.16c-2.055 4.004-4.057 8.061-5.899 12.065l-0.027 0.053c-0.187 0.427-0.4 0.881-0.614 1.361-0.133 0.294-0.267 0.614-0.4 0.961-0.347 0.988-0.454 1.922-0.32 2.883 0.294 2.002 1.628 3.684 3.47 4.431 0.694 0.294 1.415 0.427 2.162 0.427 0.214 0 0.48-0.027 0.694-0.053 0.881-0.107 1.788-0.4 2.669-0.908 1.094-0.614 2.135-1.495 3.31-2.776 1.174 1.281 2.242 2.162 3.31 2.776 0.881 0.507 1.788 0.801 2.669 0.908 0.214 0.027 0.481 0.053 0.694 0.053 0.747 0 1.495-0.133 2.162-0.427 1.869-0.747 3.177-2.456 3.47-4.431 0.214-0.934 0.107-1.869-0.24-2.856zM12.385 23.007c-1.441-1.815-2.376-3.524-2.696-4.965-0.133-0.614-0.16-1.148-0.080-1.628 0.053-0.427 0.214-0.801 0.427-1.121 0.507-0.721 1.361-1.174 2.349-1.174s1.869 0.427 2.349 1.174c0.214 0.32 0.374 0.694 0.427 1.121 0.080 0.48 0.053 1.041-0.080 1.628-0.32 1.415-1.255 3.123-2.696 4.965zM23.036 24.262c-0.187 1.388-1.121 2.589-2.429 3.123-0.641 0.267-1.335 0.347-2.029 0.267-0.667-0.080-1.335-0.294-2.029-0.694-0.961-0.534-1.922-1.361-3.043-2.589 1.762-2.162 2.829-4.138 3.23-5.899 0.187-0.827 0.214-1.575 0.133-2.269-0.107-0.667-0.347-1.281-0.721-1.815-0.827-1.201-2.216-1.895-3.764-1.895s-2.936 0.721-3.764 1.895c-0.374 0.534-0.614 1.148-0.721 1.815-0.107 0.694-0.080 1.468 0.133 2.269 0.4 1.762 1.495 3.764 3.23 5.926-1.094 1.228-2.082 2.055-3.043 2.589-0.694 0.4-1.361 0.614-2.029 0.694-0.721 0.080-1.415-0.027-2.029-0.267-1.308-0.534-2.242-1.735-2.429-3.123-0.080-0.667-0.027-1.335 0.24-2.082 0.080-0.267 0.214-0.534 0.347-0.854 0.187-0.427 0.4-0.881 0.614-1.335l0.027-0.053c1.842-3.977 3.817-8.035 5.873-11.985l0.080-0.16c0.214-0.4 0.427-0.827 0.641-1.228 0.214-0.427 0.454-0.827 0.747-1.175 0.561-0.641 1.308-0.988 2.135-0.988s1.575 0.347 2.135 0.988c0.294 0.347 0.534 0.747 0.747 1.175 0.214 0.4 0.427 0.827 0.641 1.228l0.080 0.16c2.029 3.977 4.004 8.035 5.846 12.012v0.027c0.214 0.427 0.4 0.908 0.614 1.335 0.133 0.32 0.267 0.587 0.347 0.854 0.214 0.694 0.294 1.361 0.187 2.055z"></path>
</symbol>
<symbol id="icon-button-arrow-icon" viewBox="0 0 32 32">
<path fill="none" stroke="#fff" style="stroke: var(--color1, #fff)" stroke-linejoin="round" stroke-linecap="round" stroke-miterlimit="4" stroke-width="1.7333" d="M19.939 8l1.502 1.988c1.295 1.714 2.827 3.234 4.55 4.517l2.009 1.495M28 16h-22.667M28 16l-2.009 1.495c-1.723 1.282-3.255 2.803-4.55 4.517l-1.502 1.988"></path>
</symbol>
<symbol id="icon-Vector-2test" viewBox="0 0 43 32">
<path fill="none" stroke="#fff" style="stroke: var(--color1, #fff)" stroke-linejoin="round" stroke-linecap="round" stroke-miterlimit="4" stroke-width="2.9714" d="M27.325 2.286l2.576 3.408c2.22 2.937 4.846 5.545 7.799 7.743l3.443 2.563M41.143 16h-38.857M41.143 16l-3.443 2.563c-2.953 2.198-5.579 4.806-7.799 7.743l-2.576 3.408"></path>
</symbol>
<symbol id="icon-arrow2-icon" viewBox="0 0 32 32">
<path stroke-linejoin="round" stroke-linecap="round" stroke-miterlimit="4" stroke-width="2" d="M19.939 8l1.502 1.988c1.295 1.714 2.827 3.234 4.55 4.517l2.009 1.495M28 16h-22.667M28 16l-2.009 1.495c-1.723 1.282-3.255 2.803-4.55 4.517l-1.502 1.988"></path>
</symbol>
<symbol id="icon-close" viewBox="0 0 32 32">
<path d="M32 3.223l-3.223-3.223-12.777 12.777-12.777-12.777-3.223 3.223 12.777 12.777-12.777 12.777 3.223 3.223 12.777-12.777 12.777 12.777 3.223-3.223-12.777-12.777 12.777-12.777z"></path>
</symbol>
<symbol id="icon-modal-check" viewBox="0 0 32 32">
<path d="M11.461 27.562c0.547 0.547 1.477 0.547 2.023 0l16.078-16.078c0.547-0.547 0.547-1.477 0-2.023l-1.969-1.969c-0.547-0.547-1.422-0.547-1.969 0l-13.125 13.125-6.18-6.125c-0.547-0.547-1.422-0.547-1.969 0l-1.969 1.969c-0.547 0.547-0.547 1.477 0 2.023l9.078 9.078z"></path>
</symbol>
<symbol id="icon-modal-close-x" viewBox="0 0 32 32">
<path stroke-linejoin="miter" stroke-linecap="round" stroke-miterlimit="4" stroke-width="3.4286" d="M2.286 2.286l27.429 27.429M2.286 29.714l27.429-27.429"></path>
</symbol>
<symbol id="icon-modal-mail-icon" viewBox="0 0 32 32">
<path d="M7 5.333h18c2.311 0 4.199 1.809 4.327 4.087l0.007 0.246v12.667c0 2.311-1.809 4.199-4.087 4.327l-0.246 0.007h-18c-2.311 0-4.199-1.809-4.326-4.087l-0.007-0.246v-12.667c0-2.311 1.809-4.199 4.087-4.327l0.246-0.007zM27.333 12.497l-10.868 5.721c-0.25 0.131-0.542 0.15-0.803 0.056l-0.128-0.056-10.868-5.72v9.835c0 1.224 0.943 2.228 2.142 2.325l0.191 0.008h18c1.224 0 2.228-0.943 2.325-2.142l0.008-0.191v-9.836zM25 7.333h-18c-1.224 0-2.228 0.943-2.326 2.142l-0.008 0.191v0.572l11.333 5.965 11.333-5.966v-0.571c0-1.224-0.943-2.228-2.142-2.326l-0.191-0.008z"></path>
</symbol>
<symbol id="icon-modal-phone-icon" viewBox="0 0 32 32">
<path d="M9.409 3.225l1.556-0.469c1.763-0.532 3.647 0.327 4.402 2.007l1.202 2.674c0.644 1.432 0.304 3.114-0.844 4.185l-1.992 1.858c-0.058 0.054-0.095 0.128-0.104 0.207-0.059 0.529 0.3 1.561 1.127 2.993 0.601 1.042 1.146 1.772 1.609 2.183 0.323 0.286 0.501 0.348 0.576 0.326l2.68-0.819c1.501-0.459 3.127 0.088 4.045 1.361l1.708 2.367c1.075 1.49 0.882 3.545-0.452 4.808l-1.182 1.119c-1.275 1.208-3.091 1.658-4.782 1.186-3.672-1.025-6.965-4.124-9.914-9.232-2.953-5.115-3.99-9.521-3.034-13.217 0.437-1.691 1.725-3.032 3.398-3.536zM9.986 5.139c-1.004 0.303-1.776 1.107-2.039 2.122-0.804 3.109 0.115 7.014 2.83 11.716 2.711 4.696 5.63 7.443 8.719 8.305 1.015 0.283 2.104 0.013 2.869-0.711l1.182-1.119c0.606-0.574 0.694-1.508 0.206-2.185l-1.708-2.367c-0.417-0.578-1.157-0.827-1.839-0.619l-2.687 0.822c-1.56 0.465-2.975-0.79-4.495-3.423-1.024-1.774-1.502-3.146-1.382-4.215 0.062-0.554 0.32-1.067 0.728-1.448l1.992-1.858c0.522-0.487 0.676-1.252 0.383-1.902l-1.202-2.674c-0.343-0.764-1.2-1.154-2.001-0.912l-1.556 0.469z"></path>
</symbol>
<symbol id="icon-modal-user-icon" viewBox="0 0 32 32">
<path d="M16 2.674c3.682 0 6.667 2.985 6.667 6.667s-2.985 6.667-6.667 6.667c-3.682 0-6.667-2.985-6.667-6.667s2.985-6.667 6.667-6.667zM16 4.674c-2.577 0-4.667 2.089-4.667 4.667s2.089 4.667 4.667 4.667c2.577 0 4.667-2.089 4.667-4.667s-2.089-4.667-4.667-4.667z"></path>
<path d="M23.673 29.335c1.656 0 2.998-1.342 2.998-2.999v-0.767c0-1.193-0.426-2.346-1.201-3.251-2.092-2.445-5.275-3.651-9.469-3.651s-7.376 1.207-9.464 3.652c-0.773 0.905-1.198 2.057-1.198 3.247v0.77c0 1.656 1.342 2.999 2.998 2.999h15.336zM23.673 27.335h-15.336c-0.551 0-0.998-0.447-0.998-0.999v-0.77c0-0.714 0.255-1.405 0.719-1.948 1.671-1.957 4.292-2.951 7.943-2.951s6.274 0.994 7.95 2.951c0.465 0.544 0.721 1.236 0.721 1.951v0.767c0 0.551-0.447 0.999-0.998 0.999z"></path>
</symbol>
<symbol id="icon-close" viewBox="0 0 32 32">
<path d="M32 3.223l-3.223-3.223-12.777 12.777-12.777-12.777-3.223 3.223 12.777 12.777-12.777 12.777 3.223 3.223 12.777-12.777 12.777 12.777 3.223-3.223-12.777-12.777 12.777-12.777z"></path>
</symbol>
</defs>
</svg>
